<?xml version="1.0" encoding="utf-8"?><svg xmlns="http://www.w3.org/2000/svg" xmlns:xlink="http://www.w3.org/1999/xlink"><symbol viewBox="0 0 30 31" id="arr-next" xmlns="http://www.w3.org/2000/svg"><path d="M0 .64c10 0 20-.01 30 .01v29.51H0V.64m9.92 5.44c1.48 3.23 3.3 6.27 4.88 9.45-1.66 3.16-3.39 6.27-4.97 9.46 1.78.02 3.57.02 5.36 0 1.89-3.17 3.75-6.35 5.65-9.51-1.9-3.14-3.77-6.32-5.72-9.43-1.74-.03-3.47-.03-5.2.03z"/></symbol><symbol viewBox="0 0 30 31" id="arr-prev" xmlns="http://www.w3.org/2000/svg"><path d="M0 .84h30v29.52H0V.84m9.15 14.68c1.92 3.14 3.78 6.34 5.76 9.45 1.72 0 3.45 0 5.18-.05-1.5-3.22-3.32-6.29-4.89-9.47 1.68-3.14 3.38-6.27 4.98-9.44-1.79-.03-3.58-.01-5.37 0-1.88 3.17-3.74 6.35-5.66 9.51z"/></symbol><symbol viewBox="0 0 146 57" id="logo" xmlns="http://www.w3.org/2000/svg"><path d="M.95 11.8C2.58 7.76 5.46 4.37 7.77.71c4.02.06 8.04.03 12.05.05-1.33 2.33-2.72 4.64-4.14 6.92-1.98.25-3.96.51-5.94.72-.07 3.01.52 6.17-.34 9.09-2.7 4.79-5.81 9.34-8.66 14.03.19-6.57-.32-13.17.21-19.72zm37.56-3.98c1.71-2.28 2.66-5.44 5.25-6.93 3.86-.36 7.75-.1 11.62-.13-1.39 2.36-2.81 4.7-4.25 7.04-4.21.03-8.41.02-12.62.02zm35.51-.02c1.5-2.39 3.03-4.76 4.63-7.09 4.06 0 8.13-.09 12.16.44-1.44 2.29-2.97 4.51-4.5 6.74-4.1-.09-8.19-.07-12.29-.09zm35.45.06c1.53-2.36 3.05-4.74 4.56-7.13 4.02.03 8.04 0 12.07.04-1.26 2.42-2.66 4.77-4.14 7.06-4.17-.02-8.33-.02-12.49.03zm29.28 9.91c2.27-3.53 4.43-7.13 6.61-10.71-.13 6.63.32 13.29-.16 19.91-2.43 5.11-5.9 9.67-8.88 14.49.06-5.85-.03-11.69.03-17.54-.22-2.34 1.27-4.26 2.4-6.15zM34.12 18h6.78c.11 1.08.22 2.17.34 3.25.63 2.47.9 5.01 1.48 7.48.18 1.18.36 2.36.55 3.53.8 2.16.76 4.48.83 6.74H39v-4h-3v4h-5.1c.07-2.27 0-4.6.86-6.75.17-1.5.32-3 .49-4.5.63-2.47.88-5.01 1.47-7.48l.4-2.27m2.93 3.99c-.06 1.76-.11 3.53-.18 5.29-.42 1.23-.83 2.46-1.21 3.69h3.69c-.39-1.23-.8-2.46-1.22-3.69-.07-1.76-.12-3.52-.18-5.28l-.9-.01zM45 18h9.55c.81.82 1.63 1.64 2.45 2.45v8.1c-.82.81-1.64 1.63-2.45 2.45H50v8h-5V18m5 4v5h2v-5h-2zm9-4h8v3.99c-.75.01-2.25.01-3 .02v3.98c.75.01 2.25.01 3 .02v3.98c-.75.01-2.25.01-3 .02V35h4v4h-9V18zm12 0h5v8h2v-8h5v21h-5v-9h-2v9h-5V18zm16.98 0H101c.44 5.9-.98 12.06.83 17.77.16 2.4.18 4.82.2 7.23H98v-4h-9v4h-4c-.02-2.46 0-4.92.01-7.38.64-1.08 1.29-2.15 1.94-3.21.08-1.22.16-2.44.26-3.66 1.34-3.42.7-7.17.77-10.75m5.07 4c-.03 2.59.16 5.26-.78 7.73-.15.88-.28 1.76-.42 2.64-.3.66-.89 1.98-1.19 2.64 1.78-.01 3.56-.02 5.34-.01V22h-2.95zm13.07-4h6.78l.33 3.25c.65 2.45.96 4.97 1.39 7.47.35 1.69.66 3.4 1.2 5.04.11 1.75.18 3.49.25 5.24H111v-4h-3v4h-5.1c.07-2.27 0-4.6.85-6.75.18-1.5.33-3 .5-4.5.63-2.47.89-5.01 1.47-7.48l.4-2.27m2.93 4c-.06 1.76-.11 3.52-.18 5.29-.42 1.22-.83 2.45-1.21 3.68h3.69c-.39-1.23-.8-2.46-1.22-3.69-.07-1.76-.12-3.52-.18-5.28h-.9zM8.65 55.63c1.46-2.3 2.91-4.62 4.35-6.95 4.18-.01 8.37 0 12.55 0-1.44 2.3-2.89 4.6-4.35 6.89-4.18.04-8.37.01-12.55.06zm39.7-6.86c4.2-.13 8.4-.11 12.59-.07-1.43 2.31-2.89 4.61-4.34 6.91-4.14-.02-8.28-.01-12.42-.03 1.45-2.24 2.85-4.49 4.17-6.81zm31.23 6.81c1.5-2.28 2.99-4.57 4.44-6.88 4.15-.03 8.3-.02 12.45-.04-1.44 2.28-2.86 4.59-4.26 6.91-4.21.04-8.42.04-12.63.01zm35.47 0c1.47-2.33 2.98-4.65 4.51-6.95 4.13.07 8.26.05 12.4.04-1.53 2.28-2.58 5.07-4.76 6.8-4.05.33-8.11.08-12.15.11z"/></symbol><symbol viewBox="0 0 162 163" id="services" xmlns="http://www.w3.org/2000/svg"><path d="M0 0h162v163H0V0m10 10.54c.01 8.48 0 16.96.01 25.44 6.3-8.48 12.55-17 18.85-25.48-6.29.07-12.57.02-18.86.04m44.21 26.49c-6.73-.03-13.46-.01-20.19-.01-.03 8.67.04 17.35-.02 26.03.01 2.34-2.09 3.92-3.24 5.77-6.85 9.41-14.03 18.6-20.64 28.16-.27 16.73-.05 33.49-.1 50.23 7.99-10.8 15.98-21.61 23.96-32.42.07 5.4.02 10.79.04 16.19 10.99.07 21.99-.12 32.98.1-5.4 7.11-10.6 14.36-15.97 21.49 10.99-.07 21.98-.05 32.98-.01 1.16-.21 2.83.39 3.59-.82 5.24-6.84 10.25-13.86 15.42-20.75 8.32-.01 16.64-.01 24.96-.01.02-11.26-.01-22.53.02-33.8 7.91-10.83 16.08-21.49 23.83-32.42.4-16.22.05-32.49.16-48.73-8.02 10.79-15.97 21.63-23.99 32.42-.02-3.81-.02-7.62-.01-11.43-12.17-.01-24.33.01-36.5-.01 6.51-8.85 13.04-17.67 19.58-26.5-12.38.05-24.75.03-37.13.01-6.72 8.73-13.09 17.72-19.73 26.51m97.63 88.7c-6.55 8.99-13.17 17.94-19.85 26.84 6.66-.08 13.31-.05 19.97-.02-.01-8.94.21-17.89-.12-26.82z"/><path d="M69.15 67.6c3.85-1.4 7.73-3.15 11.88-3.26 4.23.38 8.17 2.15 12.17 3.45-1.08 7.1-1.86 14.24-2.85 21.35 3.58-5.13 3.06-11.87 4.28-17.78 4.69 3.16 9.27 7.1 10.84 12.76.4 2.27.45 4.61.95 6.87.64 1.41 1.86 2.51 2.33 4 .2 2.47.08 4.94.07 7.42-2.71-.01-5.42-.01-8.13-.01l.08 2.98c-13.08.05-26.16-.01-39.24.03 0-.75.01-2.25.01-3-3.02-.01-6.04-.01-9.07-.03.35-3.32-1.28-7.7 2.1-9.87 1.28-4.33 1.27-9.14 3.91-12.98 1.75-3.74 5.58-5.6 8.62-8.12 1.44 5.94 1.66 12.31 4.47 17.83-.49-7.24-1.46-14.45-2.42-21.64z"/><path d="M10 10.54c6.29-.02 12.57.03 18.86-.04-6.3 8.48-12.55 17-18.85 25.48-.01-8.48 0-16.96-.01-25.44zm44.21 26.49c6.64-8.79 13.01-17.78 19.73-26.51 12.38.02 24.75.04 37.13-.01-6.54 8.83-13.07 17.65-19.58 26.5 12.17.02 24.33 0 36.5.01-.01 3.81-.01 7.62.01 11.43 8.02-10.79 15.97-21.63 23.99-32.42-.11 16.24.24 32.51-.16 48.73-7.75 10.93-15.92 21.59-23.83 32.42-.03 11.27 0 22.54-.02 33.8-8.32 0-16.64 0-24.96.01-5.17 6.89-10.18 13.91-15.42 20.75-.76 1.21-2.43.61-3.59.82-11-.04-21.99-.06-32.98.01 5.37-7.13 10.57-14.38 15.97-21.49-10.99-.22-21.99-.03-32.98-.1-.02-5.4.03-10.79-.04-16.19-7.98 10.81-15.97 21.62-23.96 32.42.05-16.74-.17-33.5.1-50.23 6.61-9.56 13.79-18.75 20.64-28.16 1.15-1.85 3.25-3.43 3.24-5.77.06-8.68-.01-17.36.02-26.03 6.73 0 13.46-.02 20.19.01M69.15 67.6c.96 7.19 1.93 14.4 2.42 21.64-2.81-5.52-3.03-11.89-4.47-17.83-3.04 2.52-6.87 4.38-8.62 8.12-2.64 3.84-2.63 8.65-3.91 12.98-3.38 2.17-1.75 6.55-2.1 9.87 3.03.02 6.05.02 9.07.03 0 .75-.01 2.25-.01 3 13.08-.04 26.16.02 39.24-.03l-.08-2.98c2.71 0 5.42 0 8.13.01.01-2.48.13-4.95-.07-7.42-.47-1.49-1.69-2.59-2.33-4-.5-2.26-.55-4.6-.95-6.87-1.57-5.66-6.15-9.6-10.84-12.76-1.22 5.91-.7 12.65-4.28 17.78.99-7.11 1.77-14.25 2.85-21.35-4-1.3-7.94-3.07-12.17-3.45-4.15.11-8.03 1.86-11.88 3.26zm82.69 58.13c.33 8.93.11 17.88.12 26.82-6.66-.03-13.31-.06-19.97.02 6.68-8.9 13.3-17.85 19.85-26.84z"/></symbol></svg>