<svg width="216" height="163pt" viewBox="0 0 162 163" xmlns="http://www.w3.org/2000/svg"><path d="M0 0h162v163H0V0m10 10.54c.01 8.48 0 16.96.01 25.44 6.3-8.48 12.55-17 18.85-25.48-6.29.07-12.57.02-18.86.04m44.21 26.49c-6.73-.03-13.46-.01-20.19-.01-.03 8.67.04 17.35-.02 26.03.01 2.34-2.09 3.92-3.24 5.77-6.85 9.41-14.03 18.6-20.64 28.16-.27 16.73-.05 33.49-.1 50.23 7.99-10.8 15.98-21.61 23.96-32.42.07 5.4.02 10.79.04 16.19 10.99.07 21.99-.12 32.98.1-5.4 7.11-10.6 14.36-15.97 21.49 10.99-.07 21.98-.05 32.98-.01 1.16-.21 2.83.39 3.59-.82 5.24-6.84 10.25-13.86 15.42-20.75 8.32-.01 16.64-.01 24.96-.01.02-11.26-.01-22.53.02-33.8 7.91-10.83 16.08-21.49 23.83-32.42.4-16.22.05-32.49.16-48.73-8.02 10.79-15.97 21.63-23.99 32.42-.02-3.81-.02-7.62-.01-11.43-12.17-.01-24.33.01-36.5-.01 6.51-8.85 13.04-17.67 19.58-26.5-12.38.05-24.75.03-37.13.01-6.72 8.73-13.09 17.72-19.73 26.51m97.63 88.7c-6.55 8.99-13.17 17.94-19.85 26.84 6.66-.08 13.31-.05 19.97-.02-.01-8.94.21-17.89-.12-26.82z"/><path d="M69.15 67.6c3.85-1.4 7.73-3.15 11.88-3.26 4.23.38 8.17 2.15 12.17 3.45-1.08 7.1-1.86 14.24-2.85 21.35 3.58-5.13 3.06-11.87 4.28-17.78 4.69 3.16 9.27 7.1 10.84 12.76.4 2.27.45 4.61.95 6.87.64 1.41 1.86 2.51 2.33 4 .2 2.47.08 4.94.07 7.42-2.71-.01-5.42-.01-8.13-.01l.08 2.98c-13.08.05-26.16-.01-39.24.03 0-.75.01-2.25.01-3-3.02-.01-6.04-.01-9.07-.03.35-3.32-1.28-7.7 2.1-9.87 1.28-4.33 1.27-9.14 3.91-12.98 1.75-3.74 5.58-5.6 8.62-8.12 1.44 5.94 1.66 12.31 4.47 17.83-.49-7.24-1.46-14.45-2.42-21.64z"/><path d="M10 10.54c6.29-.02 12.57.03 18.86-.04-6.3 8.48-12.55 17-18.85 25.48-.01-8.48 0-16.96-.01-25.44zm44.21 26.49c6.64-8.79 13.01-17.78 19.73-26.51 12.38.02 24.75.04 37.13-.01-6.54 8.83-13.07 17.65-19.58 26.5 12.17.02 24.33 0 36.5.01-.01 3.81-.01 7.62.01 11.43 8.02-10.79 15.97-21.63 23.99-32.42-.11 16.24.24 32.51-.16 48.73-7.75 10.93-15.92 21.59-23.83 32.42-.03 11.27 0 22.54-.02 33.8-8.32 0-16.64 0-24.96.01-5.17 6.89-10.18 13.91-15.42 20.75-.76 1.21-2.43.61-3.59.82-11-.04-21.99-.06-32.98.01 5.37-7.13 10.57-14.38 15.97-21.49-10.99-.22-21.99-.03-32.98-.1-.02-5.4.03-10.79-.04-16.19-7.98 10.81-15.97 21.62-23.96 32.42.05-16.74-.17-33.5.1-50.23 6.61-9.56 13.79-18.75 20.64-28.16 1.15-1.85 3.25-3.43 3.24-5.77.06-8.68-.01-17.36.02-26.03 6.73 0 13.46-.02 20.19.01M69.15 67.6c.96 7.19 1.93 14.4 2.42 21.64-2.81-5.52-3.03-11.89-4.47-17.83-3.04 2.52-6.87 4.38-8.62 8.12-2.64 3.84-2.63 8.65-3.91 12.98-3.38 2.17-1.75 6.55-2.1 9.87 3.03.02 6.05.02 9.07.03 0 .75-.01 2.25-.01 3 13.08-.04 26.16.02 39.24-.03l-.08-2.98c2.71 0 5.42 0 8.13.01.01-2.48.13-4.95-.07-7.42-.47-1.49-1.69-2.59-2.33-4-.5-2.26-.55-4.6-.95-6.87-1.57-5.66-6.15-9.6-10.84-12.76-1.22 5.91-.7 12.65-4.28 17.78.99-7.11 1.77-14.25 2.85-21.35-4-1.3-7.94-3.07-12.17-3.45-4.15.11-8.03 1.86-11.88 3.26zm82.69 58.13c.33 8.93.11 17.88.12 26.82-6.66-.03-13.31-.06-19.97.02 6.68-8.9 13.3-17.85 19.85-26.84z" fill="#ffbb02"/></svg>