<svg width="35pt" height="34pt" viewBox="0 0 35 34" xmlns="http://www.w3.org/2000/svg"><path d="M17.03 0h1.33C24.44 4.83 29.64 10.69 35 16.28v1.37c-5.37 5.22-10.63 10.57-15.91 15.89l-.2.46h-1.66c-4.75-4.31-9.16-8.98-13.75-13.46C2 19.04-.29 16.86 1.8 14.85 6.67 9.72 11.49 4.41 17.03 0M2.28 16.89c4.94 5.01 9.78 10.13 14.95 14.89l.81.08c4.59-3.97 8.6-8.57 13.01-12.73.7-.88 2.63-2.15 1.32-3.33-4.73-4.94-9.63-9.71-14.51-14.49C12.44 6.26 7.21 11.46 2.28 16.89z"/><path d="M17.11 8.85c.99.76 1.98 1.52 2.97 2.27.13-.58.38-1.72.51-2.3 3.5.66.14 5.64 3.76 6.73-.38.35-1.13 1.07-1.51 1.43.01 2.23.02 4.46.02 6.69-1.12 0-2.25 0-3.37-.01l.06-5.3c-1.48 0-2.95-.01-4.42-.01l.12 5.21c-1.2 0-2.4.03-3.59.13-.29-2.75 1.06-6.14-1.17-8.33 2.34-2.03 4.5-4.25 6.62-6.51z"/><path fill="#ffbb02" d="M2.28 16.89C7.21 11.46 12.44 6.26 17.86 1.31c4.88 4.78 9.78 9.55 14.51 14.49 1.31 1.18-.62 2.45-1.32 3.33-4.41 4.16-8.42 8.76-13.01 12.73l-.81-.08C12.06 27.02 7.22 21.9 2.28 16.89m14.83-8.04c-2.12 2.26-4.28 4.48-6.62 6.51 2.23 2.19.88 5.58 1.17 8.33 1.19-.1 2.39-.13 3.59-.13l-.12-5.21c1.47 0 2.94.01 4.42.01l-.06 5.3c1.12.01 2.25.01 3.37.01 0-2.23-.01-4.46-.02-6.69.38-.36 1.13-1.08 1.51-1.43-3.62-1.09-.26-6.07-3.76-6.73-.13.58-.38 1.72-.51 2.3-.99-.75-1.98-1.51-2.97-2.27z"/></svg>